<mxfile host="app.diagrams.net" modified="2023-07-13T15:59:17.800Z" agent="Mozilla/5.0 (Windows NT 10.0; Win64; x64) AppleWebKit/537.36 (KHTML, like Gecko) Chrome/114.0.0.0 Safari/537.36" etag="eTFdF8g6DkTA5bM7Bhtk" version="21.6.1" type="github">
  <diagram name="第 1 页" id="CU1-EMo-x9DN6jhHs7Gi">
    <mxGraphModel dx="955" dy="669" grid="0" gridSize="16" guides="1" tooltips="1" connect="1" arrows="1" fold="1" page="1" pageScale="1" pageWidth="827" pageHeight="1169" math="0" shadow="0">
      <root>
        <mxCell id="0" />
        <mxCell id="1" parent="0" />
      </root>
    </mxGraphModel>
  </diagram>
</mxfile>
